<?xml version="1.0" standalone="no"?>
<!DOCTYPE svg PUBLIC "-//W3C//DTD SVG 20010904//EN"
 "http://www.w3.org/TR/2001/REC-SVG-20010904/DTD/svg10.dtd">
<svg version="1.0" xmlns="http://www.w3.org/2000/svg"
 width="177.000000pt" height="168.000000pt" viewBox="0 0 177.000000 168.000000"
 preserveAspectRatio="xMidYMid meet">

<g transform="translate(0.000000,168.000000) scale(0.100000,-0.100000)"
fill="#4B0082" stroke="none">
<path d="M785 1609 c-300 -39 -545 -245 -641 -539 -26 -77 -28 -98 -28 -235
-1 -144 1 -154 32 -245 46 -134 101 -221 201 -321 95 -94 215 -173 321 -210
98 -34 306 -39 421 -10 287 73 503 283 533 521 l6 45 -34 -70 c-36 -76 -94
-160 -103 -151 -3 3 0 12 7 21 17 20 59 193 70 285 4 41 5 93 1 115 l-7 40
-18 -65 c-29 -103 -115 -275 -116 -232 0 8 -21 -14 -46 -48 -85 -112 -220
-202 -354 -236 -69 -18 -231 -15 -267 5 -10 5 -58 29 -108 52 -121 58 -197
132 -252 249 -23 47 -46 108 -53 135 -17 72 -14 225 5 292 25 85 99 222 147
272 176 183 466 218 698 84 60 -35 166 -138 197 -191 28 -48 43 -51 19 -4 -26
49 -127 153 -189 193 -32 21 -92 52 -135 69 -42 18 -80 38 -84 44 -5 7 -47 11
-125 10 -112 -1 -191 -17 -295 -59 -33 -13 -18 11 20 32 58 33 165 62 252 69
44 4 77 10 74 15 -10 17 145 -14 221 -43 28 -11 86 -41 130 -68 109 -66 170
-132 241 -262 37 -66 37 -42 1 27 -12 22 -22 47 -23 56 -2 27 -39 72 -117 144
-101 95 -123 110 -207 146 -67 28 -282 81 -320 78 -8 -1 -42 -5 -75 -10z m645
-266 c28 -32 56 -67 62 -78 5 -11 -3 -4 -18 15 -15 19 -47 54 -71 78 -24 23
-39 42 -34 42 5 0 33 -26 61 -57z"/>
<path d="M968 1523 c7 -3 16 -2 19 1 4 3 -2 6 -13 5 -11 0 -14 -3 -6 -6z"/>
</g>
</svg>
