<?xml version="1.0" standalone="no"?>
<!DOCTYPE svg PUBLIC "-//W3C//DTD SVG 20010904//EN"
 "http://www.w3.org/TR/2001/REC-SVG-20010904/DTD/svg10.dtd">
<svg version="1.0" xmlns="http://www.w3.org/2000/svg"
 width="384.000000pt" height="97.000000pt" viewBox="0 0 384.000000 97.000000"
 preserveAspectRatio="xMidYMid meet">

<g transform="translate(0.000000,97.000000) scale(0.100000,-0.100000)"
fill="#000" stroke="none">
<path d="M1789 799 c-49 -7 -122 -47 -152 -83 -10 -11 -30 -43 -45 -71 -23
-43 -27 -62 -27 -135 0 -73 4 -92 27 -135 56 -107 147 -165 257 -165 86 0 145
24 200 80 38 39 70 105 57 117 -3 4 -6 0 -6 -8 0 -8 -9 -25 -20 -39 l-20 -25
15 44 c8 24 15 60 14 80 l0 36 -20 -44 c-45 -101 -174 -178 -257 -153 -57 17
-103 51 -136 102 -26 38 -30 54 -31 115 0 83 26 139 88 189 36 28 45 31 112
31 63 0 71 2 52 12 -28 16 -75 16 -116 2 -18 -6 -35 -9 -38 -5 -11 11 52 27
116 29 56 2 73 -2 113 -26 54 -32 74 -35 38 -7 -60 48 -144 71 -221 59z"/>
<path d="M1970 706 c0 -2 8 -10 18 -17 15 -13 16 -12 3 4 -13 16 -21 21 -21
13z"/>
<path d="M80 625 c0 -10 10 -15 30 -15 l30 0 0 -130 c0 -171 18 -173 22 -3 3
125 3 127 27 133 14 3 26 11 29 18 3 9 -16 12 -67 12 -56 0 -71 -3 -71 -15z"/>
<path d="M340 495 l0 -145 55 0 c65 0 74 17 13 22 l-43 3 -3 53 -3 52 35 0
c25 0 36 4 36 15 0 10 -11 15 -35 15 l-35 0 0 50 0 50 45 0 c33 0 45 4 45 15
0 12 -13 15 -55 15 l-55 0 0 -145z"/>
<path d="M586 618 c-12 -17 -16 -49 -16 -129 0 -119 10 -139 68 -139 36 0 62
30 62 73 0 40 -24 29 -30 -14 -4 -30 -8 -34 -35 -34 l-30 0 -3 111 c-2 92 0
113 14 124 21 19 48 1 52 -34 4 -32 32 -35 32 -3 0 39 -27 67 -65 67 -24 0
-39 -7 -49 -22z"/>
<path d="M820 495 c0 -122 2 -145 15 -145 12 0 15 14 15 65 l0 65 40 0 40 0 0
-65 c0 -37 4 -65 10 -65 6 0 10 55 10 145 0 85 -4 145 -10 145 -5 0 -10 -30
-12 -67 l-3 -68 -35 0 -35 0 -3 68 c-2 51 -6 67 -17 67 -13 0 -15 -25 -15
-145z"/>
<path d="M1080 495 c0 -113 3 -146 13 -143 7 3 14 28 17 58 3 29 10 55 16 57
6 2 23 -23 38 -57 15 -33 33 -60 41 -60 10 0 5 22 -22 79 l-35 80 36 65 c26
48 32 66 21 66 -8 0 -24 -19 -36 -42 -12 -24 -29 -54 -38 -68 -16 -24 -16 -23
-21 40 -3 38 -10 65 -17 68 -10 3 -13 -30 -13 -143z"/>
<path d="M1340 495 c0 -90 4 -145 10 -145 6 0 10 44 10 112 0 66 4 108 9 103
5 -6 24 -56 42 -112 47 -146 59 -138 59 42 0 90 -4 145 -10 145 -6 0 -10 -41
-10 -102 0 -58 -4 -98 -9 -92 -4 5 -21 51 -36 102 -22 73 -32 92 -47 92 -17 0
-18 -11 -18 -145z"/>
<path d="M2204 623 c2 -10 12 -76 22 -146 16 -119 19 -128 38 -125 21 3 23 8
41 131 3 27 9 46 13 42 3 -3 11 -43 17 -88 9 -71 13 -82 31 -85 19 -3 22 6 37
126 19 147 20 162 8 162 -5 0 -14 -44 -21 -97 -21 -155 -25 -160 -39 -48 -16
126 -20 145 -35 145 -8 0 -17 -38 -26 -110 -7 -61 -17 -113 -21 -116 -5 -3 -9
-2 -9 3 0 4 -7 53 -15 108 -8 55 -15 103 -15 108 0 4 -7 7 -16 7 -10 0 -14 -6
-10 -17z"/>
<path d="M2540 495 l0 -145 60 0 c68 0 82 17 18 22 l-43 3 -3 133 c-2 108 -5
132 -17 132 -13 0 -15 -24 -15 -145z"/>
<path d="M2774 627 c-2 -7 -3 -71 -2 -143 l3 -129 58 -3 c66 -3 80 15 15 20
l-43 3 -3 53 -3 52 35 0 c25 0 36 4 36 15 0 10 -11 15 -35 15 l-35 0 0 49 0
50 42 3 c23 2 43 9 46 16 5 17 -107 17 -114 -1z"/>
<path d="M3010 495 l0 -145 49 0 c75 0 81 10 81 144 0 133 -7 146 -83 146
l-47 0 0 -145z m98 103 c8 -8 12 -46 12 -104 0 -101 -10 -124 -56 -124 l-24 0
0 120 0 120 28 0 c15 0 33 -5 40 -12z"/>
<path d="M3278 618 c-18 -32 -18 -229 1 -251 17 -21 75 -22 95 -1 11 10 16 34
16 75 0 59 0 59 -30 59 -34 0 -40 -15 -10 -23 37 -10 20 -107 -18 -107 -35 0
-42 21 -42 121 0 75 4 101 16 113 26 26 49 16 59 -27 4 -15 11 -27 16 -27 15
0 10 44 -7 68 -21 31 -78 31 -96 0z"/>
<path d="M3514 627 c-2 -7 -3 -71 -2 -143 l3 -129 58 -3 c66 -3 80 15 15 20
l-43 3 -3 52 -3 52 38 3 c49 4 49 22 1 26 l-38 3 0 50 0 49 45 0 c33 0 45 4
45 15 0 20 -108 22 -116 2z"/>
</g>
</svg>
