<?xml version="1.0" standalone="no"?>
<!DOCTYPE svg PUBLIC "-//W3C//DTD SVG 20010904//EN"
 "http://www.w3.org/TR/2001/REC-SVG-20010904/DTD/svg10.dtd">
<svg version="1.0" xmlns="http://www.w3.org/2000/svg"
 width="312.000000pt" height="36.000000pt" viewBox="0 0 312.000000 36.000000"
 preserveAspectRatio="xMidYMid meet">

<g transform="translate(0.000000,36.000000) scale(0.100000,-0.100000)"
fill="#fff" stroke="none">
<path d="M60 315 c0 -9 9 -15 25 -15 l25 0 0 -125 c0 -104 2 -125 15 -125 13
0 15 21 15 125 l0 125 25 0 c16 0 25 6 25 15 0 12 -14 15 -65 15 -51 0 -65 -3
-65 -15z"/>
<path d="M300 190 l0 -140 55 0 c42 0 55 3 55 15 0 11 -11 15 -40 15 l-40 0 0
50 0 50 36 0 c45 0 42 24 -4 28 -31 3 -32 5 -32 48 l0 44 40 0 c29 0 40 4 40
15 0 12 -13 15 -55 15 l-55 0 0 -140z"/>
<path d="M536 314 c-13 -12 -16 -39 -16 -124 0 -120 8 -140 60 -140 38 0 60
24 60 66 0 46 -27 47 -32 1 -2 -27 -7 -32 -28 -32 -25 0 -25 1 -28 100 -2 85
0 102 14 112 22 16 44 0 44 -33 0 -15 6 -24 15 -24 20 0 20 54 -1 74 -8 9 -28
16 -44 16 -16 0 -36 -7 -44 -16z"/>
<path d="M750 190 c0 -116 3 -140 15 -140 10 0 15 16 17 63 3 62 3 62 36 65
l32 3 0 -65 c0 -52 3 -66 15 -66 13 0 15 22 15 140 0 118 -2 140 -15 140 -12
0 -15 -14 -15 -66 l0 -65 -32 3 c-33 3 -33 3 -36 66 -2 46 -7 62 -17 62 -12 0
-15 -24 -15 -140z"/>
<path d="M992 193 c3 -115 6 -138 18 -138 11 0 16 14 18 50 2 28 7 53 11 58 4
4 20 -20 36 -53 16 -33 35 -60 42 -60 18 0 18 1 -22 81 l-36 70 37 64 c27 49
32 65 20 65 -8 0 -31 -28 -50 -62 l-36 -63 0 63 c0 56 -2 62 -20 62 -20 0 -20
-5 -18 -137z"/>
<path d="M1240 189 c0 -108 3 -140 13 -137 8 3 13 36 15 104 l4 99 32 -100
c22 -70 37 -101 49 -103 15 -3 17 10 17 137 0 119 -2 141 -15 141 -12 0 -15
-17 -16 -92 l-1 -93 -30 93 c-24 74 -33 92 -49 92 -18 0 -19 -8 -19 -141z"/>
<path d="M1497 312 c-14 -15 -17 -40 -17 -124 0 -90 3 -107 19 -122 28 -26 82
-18 98 14 19 37 17 200 -3 228 -19 28 -74 30 -97 4z m67 -18 c12 -12 16 -36
16 -102 0 -98 -7 -115 -41 -110 -23 3 -24 6 -27 103 -2 85 0 102 15 112 21 16
18 16 37 -3z"/>
<path d="M1714 298 c3 -18 10 -69 16 -113 17 -125 20 -135 40 -135 20 0 27 21
37 110 3 33 8 58 11 55 3 -3 11 -40 16 -83 10 -67 14 -77 32 -80 20 -3 22 5
39 133 17 127 15 168 -4 136 -5 -7 -12 -43 -15 -80 -15 -141 -21 -145 -35 -23
-12 94 -16 112 -31 112 -15 0 -19 -17 -30 -110 -7 -61 -14 -109 -16 -107 -2 2
-8 39 -14 83 -16 118 -20 134 -36 134 -11 0 -14 -8 -10 -32z"/>
<path d="M2030 190 l0 -140 55 0 c42 0 55 3 55 15 0 11 -11 15 -40 15 l-40 0
0 125 c0 104 -2 125 -15 125 -13 0 -15 -22 -15 -140z"/>
<path d="M2244 317 c-2 -7 -3 -69 -2 -138 l3 -124 58 -3 c46 -2 57 0 57 13 0
11 -11 15 -40 15 l-40 0 0 50 c0 49 1 50 30 50 20 0 30 5 30 15 0 10 -10 15
-30 15 -29 0 -30 2 -30 45 l0 45 40 0 c29 0 40 4 40 15 0 20 -108 22 -116 2z"/>
<path d="M2470 190 l0 -140 43 0 c73 0 81 13 85 133 3 96 2 107 -17 126 -15
15 -34 21 -66 21 l-45 0 0 -140z m94 94 c3 -9 6 -53 6 -98 0 -88 -8 -106 -47
-106 -23 0 -23 2 -23 110 l0 110 29 0 c17 0 31 -6 35 -16z"/>
<path d="M2719 313 c-10 -11 -14 -47 -14 -125 0 -121 8 -138 66 -138 39 0 59
33 59 97 0 52 0 53 -30 53 -20 0 -30 -5 -30 -15 0 -8 7 -15 16 -15 12 0 14 -9
12 -42 -3 -38 -6 -43 -28 -43 -25 0 -25 0 -28 104 -2 75 1 107 10 112 19 12
48 -9 48 -36 0 -16 6 -25 15 -25 22 0 19 53 -3 73 -24 22 -76 22 -93 0z"/>
<path d="M2940 190 l0 -141 55 3 c64 3 74 22 15 26 l-40 3 0 50 0 49 35 0 c24
0 35 5 35 15 0 10 -11 15 -35 15 -35 0 -35 0 -35 44 l0 45 43 3 c60 4 48 22
-18 26 l-55 3 0 -141z"/>
</g>
</svg>
